<mxfile host="app.diagrams.net" modified="2023-10-06T11:30:24.422Z" agent="Mozilla/5.0 (Windows NT 10.0; Win64; x64) AppleWebKit/537.36 (KHTML, like Gecko) Chrome/117.0.0.0 Safari/537.36" etag="9OJ9x6oORRqtm_QfAFz3" version="22.0.2" type="github">
  <diagram id="C5RBs43oDa-KdzZeNtuy" name="Page-1">
    <mxGraphModel dx="659" dy="726" grid="1" gridSize="10" guides="1" tooltips="1" connect="1" arrows="1" fold="1" page="1" pageScale="1" pageWidth="827" pageHeight="1169" math="0" shadow="0">
      <root>
        <mxCell id="WIyWlLk6GJQsqaUBKTNV-0" />
        <mxCell id="WIyWlLk6GJQsqaUBKTNV-1" parent="WIyWlLk6GJQsqaUBKTNV-0" />
        <mxCell id="f4Y0gO_Kiw8ghcvXuQjV-9" value="" style="edgeStyle=orthogonalEdgeStyle;rounded=0;orthogonalLoop=1;jettySize=auto;html=1;" edge="1" parent="WIyWlLk6GJQsqaUBKTNV-1" source="f4Y0gO_Kiw8ghcvXuQjV-0" target="f4Y0gO_Kiw8ghcvXuQjV-8">
          <mxGeometry relative="1" as="geometry" />
        </mxCell>
        <mxCell id="f4Y0gO_Kiw8ghcvXuQjV-0" value="" style="strokeWidth=2;html=1;shape=mxgraph.flowchart.start_2;whiteSpace=wrap;" vertex="1" parent="WIyWlLk6GJQsqaUBKTNV-1">
          <mxGeometry x="115" y="20" width="30" height="30" as="geometry" />
        </mxCell>
        <mxCell id="f4Y0gO_Kiw8ghcvXuQjV-1" value="" style="strokeWidth=2;html=1;shape=mxgraph.flowchart.terminator;whiteSpace=wrap;" vertex="1" parent="WIyWlLk6GJQsqaUBKTNV-1">
          <mxGeometry x="97.5" y="600" width="65" height="40" as="geometry" />
        </mxCell>
        <mxCell id="f4Y0gO_Kiw8ghcvXuQjV-19" style="edgeStyle=orthogonalEdgeStyle;rounded=0;orthogonalLoop=1;jettySize=auto;html=1;" edge="1" parent="WIyWlLk6GJQsqaUBKTNV-1" source="f4Y0gO_Kiw8ghcvXuQjV-2" target="f4Y0gO_Kiw8ghcvXuQjV-18">
          <mxGeometry relative="1" as="geometry" />
        </mxCell>
        <mxCell id="f4Y0gO_Kiw8ghcvXuQjV-2" value="escreva Var_2" style="strokeWidth=2;html=1;shape=mxgraph.flowchart.document2;whiteSpace=wrap;size=0.25;" vertex="1" parent="WIyWlLk6GJQsqaUBKTNV-1">
          <mxGeometry x="300" y="450" width="100" height="50" as="geometry" />
        </mxCell>
        <mxCell id="f4Y0gO_Kiw8ghcvXuQjV-12" value="" style="edgeStyle=orthogonalEdgeStyle;rounded=0;orthogonalLoop=1;jettySize=auto;html=1;" edge="1" parent="WIyWlLk6GJQsqaUBKTNV-1" source="f4Y0gO_Kiw8ghcvXuQjV-8" target="f4Y0gO_Kiw8ghcvXuQjV-11">
          <mxGeometry relative="1" as="geometry" />
        </mxCell>
        <mxCell id="f4Y0gO_Kiw8ghcvXuQjV-8" value="cadeia Var = &quot; &quot;&lt;br&gt;cadeia Var_2 = &quot;&quot;" style="whiteSpace=wrap;html=1;strokeWidth=2;" vertex="1" parent="WIyWlLk6GJQsqaUBKTNV-1">
          <mxGeometry x="70" y="80" width="120" height="60" as="geometry" />
        </mxCell>
        <mxCell id="f4Y0gO_Kiw8ghcvXuQjV-27" style="edgeStyle=orthogonalEdgeStyle;rounded=0;orthogonalLoop=1;jettySize=auto;html=1;exitX=0.5;exitY=1;exitDx=0;exitDy=0;" edge="1" parent="WIyWlLk6GJQsqaUBKTNV-1" source="f4Y0gO_Kiw8ghcvXuQjV-11" target="f4Y0gO_Kiw8ghcvXuQjV-15">
          <mxGeometry relative="1" as="geometry" />
        </mxCell>
        <mxCell id="f4Y0gO_Kiw8ghcvXuQjV-11" value="leia Var&lt;br&gt;" style="html=1;strokeWidth=2;shape=manualInput;whiteSpace=wrap;rounded=1;size=26;arcSize=11;" vertex="1" parent="WIyWlLk6GJQsqaUBKTNV-1">
          <mxGeometry x="80" y="180" width="100" height="60" as="geometry" />
        </mxCell>
        <mxCell id="f4Y0gO_Kiw8ghcvXuQjV-13" value="leia Var&lt;br&gt;" style="html=1;strokeWidth=2;shape=manualInput;whiteSpace=wrap;rounded=1;size=26;arcSize=11;" vertex="1" parent="WIyWlLk6GJQsqaUBKTNV-1">
          <mxGeometry x="490" y="309" width="100" height="60" as="geometry" />
        </mxCell>
        <mxCell id="f4Y0gO_Kiw8ghcvXuQjV-24" value="" style="edgeStyle=orthogonalEdgeStyle;rounded=0;orthogonalLoop=1;jettySize=auto;html=1;" edge="1" parent="WIyWlLk6GJQsqaUBKTNV-1" source="f4Y0gO_Kiw8ghcvXuQjV-15" target="f4Y0gO_Kiw8ghcvXuQjV-22">
          <mxGeometry relative="1" as="geometry" />
        </mxCell>
        <mxCell id="f4Y0gO_Kiw8ghcvXuQjV-15" value="enquanto Var != &quot;sair&quot;" style="shape=hexagon;perimeter=hexagonPerimeter2;whiteSpace=wrap;html=1;fixedSize=1;" vertex="1" parent="WIyWlLk6GJQsqaUBKTNV-1">
          <mxGeometry x="70" y="299" width="120" height="80" as="geometry" />
        </mxCell>
        <mxCell id="f4Y0gO_Kiw8ghcvXuQjV-21" style="edgeStyle=orthogonalEdgeStyle;rounded=0;orthogonalLoop=1;jettySize=auto;html=1;" edge="1" parent="WIyWlLk6GJQsqaUBKTNV-1" source="f4Y0gO_Kiw8ghcvXuQjV-18" target="f4Y0gO_Kiw8ghcvXuQjV-1">
          <mxGeometry relative="1" as="geometry" />
        </mxCell>
        <mxCell id="f4Y0gO_Kiw8ghcvXuQjV-18" value="" style="strokeWidth=2;html=1;shape=mxgraph.flowchart.start_2;whiteSpace=wrap;" vertex="1" parent="WIyWlLk6GJQsqaUBKTNV-1">
          <mxGeometry x="115" y="460" width="30" height="30" as="geometry" />
        </mxCell>
        <mxCell id="f4Y0gO_Kiw8ghcvXuQjV-20" style="edgeStyle=orthogonalEdgeStyle;rounded=0;orthogonalLoop=1;jettySize=auto;html=1;entryX=0.5;entryY=0;entryDx=0;entryDy=0;entryPerimeter=0;" edge="1" parent="WIyWlLk6GJQsqaUBKTNV-1" source="f4Y0gO_Kiw8ghcvXuQjV-15" target="f4Y0gO_Kiw8ghcvXuQjV-18">
          <mxGeometry relative="1" as="geometry" />
        </mxCell>
        <mxCell id="f4Y0gO_Kiw8ghcvXuQjV-25" value="" style="edgeStyle=orthogonalEdgeStyle;rounded=0;orthogonalLoop=1;jettySize=auto;html=1;" edge="1" parent="WIyWlLk6GJQsqaUBKTNV-1" source="f4Y0gO_Kiw8ghcvXuQjV-22" target="f4Y0gO_Kiw8ghcvXuQjV-13">
          <mxGeometry relative="1" as="geometry" />
        </mxCell>
        <mxCell id="f4Y0gO_Kiw8ghcvXuQjV-22" value="Var = Var_2" style="whiteSpace=wrap;html=1;strokeWidth=2;rounded=1;arcSize=11;" vertex="1" parent="WIyWlLk6GJQsqaUBKTNV-1">
          <mxGeometry x="290" y="309" width="120" height="60" as="geometry" />
        </mxCell>
        <mxCell id="f4Y0gO_Kiw8ghcvXuQjV-28" style="edgeStyle=orthogonalEdgeStyle;rounded=0;orthogonalLoop=1;jettySize=auto;html=1;entryX=1;entryY=0.5;entryDx=0;entryDy=0;entryPerimeter=0;" edge="1" parent="WIyWlLk6GJQsqaUBKTNV-1" source="f4Y0gO_Kiw8ghcvXuQjV-13" target="f4Y0gO_Kiw8ghcvXuQjV-2">
          <mxGeometry relative="1" as="geometry">
            <Array as="points">
              <mxPoint x="540" y="475" />
            </Array>
          </mxGeometry>
        </mxCell>
      </root>
    </mxGraphModel>
  </diagram>
</mxfile>
